<svg width="254" height="254" viewBox="0 0 98 98" fill="none" xmlns="http://www.w3.org/2000/svg">
<rect width="98" height="98" rx="30" fill="#1A212E"/>
<path d="M21.0062 63.4512H15.4423C13.5339 63.4512 12.0287 62.9002 10.9267 61.7981C9.8247 60.6961 9.27369 59.1775 9.27369 57.2422V48.6142H6.65303L5.32254 43.2923H9.27369V40.2684L15.3617 37.2446V43.2923H21.7319L20.4014 48.6142H15.3617V55.5086C15.3617 56.3687 15.5364 56.9869 15.8858 57.3632C16.2621 57.7126 16.8669 57.8873 17.7001 57.8873H21.0062V63.4512ZM54.3156 63.4512H48.7517C46.8434 63.4512 45.3382 62.9002 44.2361 61.7981C43.1341 60.6961 42.5831 59.1775 42.5831 57.2422V48.6142H39.9625L38.632 43.2923H42.5831V40.2684L48.6711 37.2446V43.2923H55.0413L53.7108 48.6142H48.6711V55.5086C48.6711 56.3687 48.8458 56.9869 49.1952 57.3632C49.5715 57.7126 50.1763 57.8873 51.0095 57.8873H54.3156V63.4512ZM69.7463 63.4512V43.2923H75.8343V44.5421C77.0976 43.4939 78.6431 42.9697 80.4708 42.9697C83.2662 42.9697 85.4299 43.8164 86.962 45.5097C88.4941 47.1762 89.2601 49.4071 89.2601 52.2025V63.4512H83.1721V53.2911C83.1721 51.8665 82.863 50.7242 82.2448 49.8641C81.6535 48.9771 80.7262 48.5336 79.4629 48.5336C78.0652 48.5336 76.8557 49.1115 75.8343 50.2672V63.4512H69.7463Z" fill="white"/>
<path d="M24.5819 54.9844V49.1787H36.0321V54.9844H24.5819ZM64.5437 62.5239C63.7105 63.3571 62.6891 63.7737 61.4796 63.7737C60.27 63.7737 59.2352 63.3571 58.3751 62.5239C57.5419 61.6637 57.1253 60.6289 57.1253 59.4194C57.1253 58.183 57.5419 57.1482 58.3751 56.3149C59.2352 55.4817 60.27 55.0651 61.4796 55.0651C62.6891 55.0651 63.7105 55.4817 64.5437 56.3149C65.4038 57.1482 65.8339 58.183 65.8339 59.4194C65.8339 60.6289 65.4038 61.6637 64.5437 62.5239Z" fill="white" fill-opacity="0.5"/>
</svg>
