<svg width="254" height="254" viewBox="0 0 254 254" fill="none" xmlns="http://www.w3.org/2000/svg">
<rect width="254" height="254" fill="url(#paint0_radial_3301_2)"/>
<path d="M130.299 67.4171C122.008 66.3301 113.005 68.3383 105.024 71.2408C92.0511 75.9587 81.1087 87.3226 73.2279 101.413C69.8457 107.46 66.802 113.844 65.5218 121.249C63.9072 130.589 66.2118 139.231 70.0642 147.088C80.5786 168.533 99.0115 177.836 117.432 181.524C132.454 184.531 148.826 184.862 162.059 173.691C174.833 162.909 182.288 143.477 181.219 123.52C180.18 104.141 170.027 88.8844 157.588 79.6064C150.613 74.4044 142.984 70.6486 135.053 68.9698C126.512 67.1617 117.924 67.1431 109.301 67" stroke="white" stroke-width="3" stroke-linecap="round"/>
<path d="M73 77.1158C73.861 67.1813 75.8207 57.4064 79.471 48.1147C79.7464 47.4137 82.7096 39.6359 83.8113 41.2097C85.3492 43.4067 86.059 46.3408 87.1651 48.7658C88.554 51.8106 89.853 54.8729 91.1898 57.9396C92.3617 60.6281 94.1331 63.0254 96.0825 65.1997C96.6983 65.8866 97.8324 66.411 98.2132 67.1726" stroke="white" stroke-width="3" stroke-linecap="round"/>
<path d="M163.195 81.7311C163.365 73.0963 166.396 65.4393 171.718 58.6486C173.578 56.2755 176.035 54.2396 178.82 53.0457C179.391 52.801 179.176 56.8856 179.195 57.3071C179.377 61.3131 180.546 65.1978 180.931 69.1837C181.366 73.6791 181.277 77.9643 180.774 82.4414C180.471 85.1298 179.529 87.6005 179.156 90.2144C179.036 91.0502 179.175 91.5225 179.175 92.3846" stroke="white" stroke-width="3" stroke-linecap="round"/>
<path d="M108.372 114.048C106.399 112.293 104.274 115.738 105.997 117.353C107.06 118.351 109.046 119.352 110.557 119.035C111.67 118.802 111.939 116.89 111.132 116.173C110.252 115.39 109.239 114.67 108.122 115.509C107.058 116.306 108.605 116.809 109.435 117.028C113.482 118.1 109.074 115.036 108.638 115.907" stroke="white" stroke-width="3" stroke-linecap="round"/>
<path d="M141.842 114.844C140.234 114.844 138.218 118.783 139.717 118.829C141.92 118.896 143.17 118.438 143.17 116.173" stroke="white" stroke-width="3" stroke-linecap="round"/>
<path d="M140.253 149.216C143.305 149.216 141.537 152.369 141.028 153.233C140.331 154.419 138.978 156.88 136.348 156.989C132.273 157.159 131.642 155.286 130.614 153.287C130.411 152.893 129.883 149.591 128.955 149.711C128.127 149.818 127.261 150.865 126.863 151.233C125.541 152.455 123.951 153.601 122.399 154.728C120.177 156.343 115.729 157.682 113.767 155.116C111.45 152.086 112.077 148.222 112.077 145" stroke="white" stroke-width="3" stroke-linecap="round"/>
<path d="M72.5084 154.118C72.436 154.697 71.3319 155.982 71.052 156.675C69.8522 159.643 68.804 162.596 68.1393 165.753C67.6853 167.91 66.7412 170.231 65.6797 172.161C65.5374 172.419 64.7521 174.486 64.7088 174.442C64.6418 174.375 64.3697 173.186 64.3528 173.051C64.2453 172.19 63.3958 174.507 63.3172 174.653C61.9884 177.121 65.0351 177.091 65.7445 175.672C66.0801 175.001 65.619 174.354 64.9354 174.734C63.8812 175.319 64.0616 176.972 64.0616 177.986C64.0616 180.433 66.7328 177.529 67.039 176.611C68.4901 172.257 61.2633 178.002 65.081 178.002C66.7095 178.002 64.3528 175.123 64.3528 177.128" stroke="white" stroke-width="3" stroke-linecap="round"/>
<path d="M177.365 156.448C178.038 160.151 182.018 163.076 183.207 166.643C183.499 167.52 184.184 168.177 184.582 168.973C184.782 169.372 184.827 170.104 185.23 170.364C186.104 170.93 186.458 171.999 187.398 172.598C188.271 173.153 187.572 170.899 187.398 170.575C186.972 169.783 186.727 168.973 185.747 168.973C184.864 168.973 184.393 169.022 184.356 170.073C184.322 171.017 184.256 171.993 184.647 172.873C184.869 173.372 185.962 173.575 186.087 172.889C186.447 170.908 182.174 169.723 182.964 171.303C183.684 172.742 186.767 174.337 188.255 173.18C188.987 172.611 187.268 169.222 187.268 171.886" stroke="white" stroke-width="3" stroke-linecap="round"/>
<path d="M117.547 182.427C117.547 187.272 115.676 191.739 115.676 196.606C115.676 197.893 115.174 200.505 115.967 201.596C116.616 202.488 113.836 201.887 113.409 201.887C111.931 201.887 109.915 201.503 108.565 202.178C108.407 202.257 110.971 202.261 111.559 202.261C112.398 202.261 115.385 202.261 115.218 202.261C113.63 202.261 112.198 202.467 110.644 202.614C107.31 202.932 111.486 204.861 112.599 202.635C114.058 199.716 106.966 201.545 109.314 202.718C110.572 203.348 113.44 203.29 114.74 202.781C116.135 202.235 117.475 201.286 115.592 200.681C113.576 200.033 109.765 200.835 108.565 202.635" stroke="white" stroke-width="3" stroke-linecap="round"/>
<path d="M145.24 180.93C143.446 181.378 143.76 187.915 143.743 189.163C143.689 193.037 141.545 197.843 142.641 201.679C142.97 202.832 147.921 203.384 148.961 203.384C150.394 203.384 151.607 203.746 152.267 202.261C152.463 201.82 153.548 199.687 152.725 199.642C150.044 199.493 146.37 201.089 144.346 202.802C143.219 203.755 148.226 203.411 149.128 203.01C150.856 202.241 147.586 201.513 147.111 201.513" stroke="white" stroke-width="3" stroke-linecap="round"/>
<defs>
<radialGradient id="paint0_radial_3301_2" cx="0" cy="0" r="1" gradientUnits="userSpaceOnUse" gradientTransform="translate(127 127) rotate(90) scale(127)">
<stop/>
<stop offset="1" stop-color="#171717"/>
</radialGradient>
</defs>
</svg>