<svg width="600" height="600" viewBox="0 0 600 600" fill="none" xmlns="http://www.w3.org/2000/svg">
<g clip-path="url(#clip0_240_349)">
<rect width="600" height="600" fill="#0F1219"/>
<circle opacity="0.21" cx="101" cy="361" r="364" fill="url(#paint0_radial_240_349)"/>
<ellipse opacity="0.21" cx="499" cy="308.5" rx="364" ry="363.5" fill="url(#paint1_radial_240_349)"/>
<path d="M152.983 245.864V353.5H139.949V259.528H139.318L113.04 276.977V263.733L139.949 245.864H152.983ZM219.047 354.972C211.128 354.972 204.384 352.817 198.812 348.507C193.241 344.162 188.984 337.873 186.041 329.639C183.098 321.37 181.626 311.384 181.626 299.682C181.626 288.049 183.098 278.116 186.041 269.882C189.019 261.613 193.294 255.306 198.865 250.962C204.471 246.582 211.198 244.392 219.047 244.392C226.895 244.392 233.605 246.582 239.176 250.962C244.782 255.306 249.057 261.613 252 269.882C254.978 278.116 256.467 288.049 256.467 299.682C256.467 311.384 254.996 321.37 252.053 329.639C249.109 337.873 244.852 344.162 239.281 348.507C233.71 352.817 226.965 354.972 219.047 354.972ZM219.047 343.409C226.895 343.409 232.992 339.625 237.337 332.057C241.681 324.489 243.854 313.697 243.854 299.682C243.854 290.362 242.855 282.426 240.858 275.874C238.896 269.321 236.058 264.329 232.344 260.895C228.665 257.461 224.232 255.744 219.047 255.744C211.268 255.744 205.189 259.581 200.81 267.254C196.43 274.893 194.24 285.702 194.24 299.682C194.24 309.002 195.221 316.92 197.183 323.438C199.145 329.955 201.966 334.912 205.645 338.311C209.359 341.71 213.826 343.409 219.047 343.409ZM285.689 339.73C283.096 339.73 280.871 338.802 279.014 336.945C277.157 335.088 276.229 332.863 276.229 330.27C276.229 327.677 277.157 325.452 279.014 323.595C280.871 321.738 283.096 320.81 285.689 320.81C288.282 320.81 290.507 321.738 292.364 323.595C294.221 325.452 295.149 327.677 295.149 330.27C295.149 331.987 294.711 333.563 293.835 335C292.994 336.437 291.856 337.593 290.419 338.469C289.018 339.31 287.441 339.73 285.689 339.73ZM285.689 285.281C283.096 285.281 280.871 284.353 279.014 282.496C277.157 280.639 276.229 278.414 276.229 275.821C276.229 273.228 277.157 271.003 279.014 269.146C280.871 267.289 283.096 266.361 285.689 266.361C288.282 266.361 290.507 267.289 292.364 269.146C294.221 271.003 295.149 273.228 295.149 275.821C295.149 277.538 294.711 279.115 293.835 280.551C292.994 281.988 291.856 283.144 290.419 284.02C289.018 284.861 287.441 285.281 285.689 285.281ZM314.674 331.426V320.705L361.975 245.864H369.754V262.472H364.498L328.759 319.023V319.864H392.458V331.426H314.674ZM365.339 353.5V328.168V323.175V245.864H377.742V353.5H365.339ZM409.631 331.426V320.705L456.932 245.864H464.711V262.472H459.455L423.716 319.023V319.864H487.415V331.426H409.631ZM460.296 353.5V328.168V323.175V245.864H472.699V353.5H460.296Z" fill="white"/>
</g>
<defs>
<radialGradient id="paint0_radial_240_349" cx="0" cy="0" r="1" gradientUnits="userSpaceOnUse" gradientTransform="translate(101 361) rotate(90) scale(364)">
<stop stop-color="#3D00E3"/>
<stop offset="1" stop-color="#3B00E3" stop-opacity="0"/>
</radialGradient>
<radialGradient id="paint1_radial_240_349" cx="0" cy="0" r="1" gradientUnits="userSpaceOnUse" gradientTransform="translate(499 308.5) rotate(90) scale(363.5 364)">
<stop stop-color="#005BE3"/>
<stop offset="0.9999" stop-color="#005BE3" stop-opacity="0"/>
<stop offset="1" stop-color="#005BE3" stop-opacity="0"/>
</radialGradient>
<clipPath id="clip0_240_349">
<rect width="600" height="600" fill="white"/>
</clipPath>
</defs>
</svg>
