<svg width="512" height="512" viewBox="0 0 512 512" fill="none" xmlns="http://www.w3.org/2000/svg">
  <rect width="512" height="512" fill="url(#paint0_linear_2845_2968)"/>
  <path fill-rule="evenodd" clip-rule="evenodd" d="M373.692 136.889C376.425 139.206 378 142.608 378 146.192V304.692C378 311.426 372.546 316.884 365.819 316.884C359.091 316.884 353.637 311.426 353.637 304.692V160.585L231.825 180.905V329.077C231.825 335.81 226.371 341.269 219.644 341.269C212.916 341.269 207.462 335.81 207.462 329.077V170.577C207.462 164.617 211.767 159.53 217.641 158.551L363.816 134.166C367.348 133.577 370.96 134.573 373.692 136.889Z" fill="#7AD7FF"/>
  <path fill-rule="evenodd" clip-rule="evenodd" d="M182.866 304.702C169.372 304.702 158.433 315.641 158.433 329.134C158.433 342.628 169.372 353.567 182.866 353.567C196.359 353.567 207.298 342.628 207.298 329.134C207.298 315.641 196.359 304.702 182.866 304.702ZM134 329.134C134 302.147 155.878 280.269 182.866 280.269C209.853 280.269 231.731 302.147 231.731 329.134C231.731 356.122 209.853 378 182.866 378C155.878 378 134 356.122 134 329.134Z" fill="#7AD7FF"/>
  <path fill-rule="evenodd" clip-rule="evenodd" d="M329.134 280.433C315.641 280.433 304.702 291.372 304.702 304.866C304.702 318.359 315.641 329.298 329.134 329.298C342.628 329.298 353.567 318.359 353.567 304.866C353.567 291.372 342.628 280.433 329.134 280.433ZM280.269 304.866C280.269 277.878 302.147 256 329.134 256C356.122 256 378 277.878 378 304.866C378 331.853 356.122 353.731 329.134 353.731C302.147 353.731 280.269 331.853 280.269 304.866Z" fill="#7AD7FF"/>
  <defs>
  <linearGradient id="paint0_linear_2845_2968" x1="199.4" y1="46.5778" x2="370.882" y2="722.127" gradientUnits="userSpaceOnUse">
  <stop stop-color="#203944"/>
  <stop offset="1" stop-color="#000D13"/>
  </linearGradient>
  </defs>
  </svg>