<svg width="124" height="124" viewBox="0 0 124 124" fill="none" xmlns="http://www.w3.org/2000/svg">
<g clip-path="url(#clip0_1409_662)">
<rect width="124" height="124" rx="62" fill="#0F1219"/>
<circle opacity="0.21" cx="20.8734" cy="74.6068" r="75.2267" fill="url(#paint0_radial_1409_662)"/>
<ellipse opacity="0.21" cx="103.127" cy="63.7566" rx="75.2267" ry="75.1233" fill="url(#paint1_radial_1409_662)"/>
<g style="mix-blend-mode:overlay" opacity="0.54">
<path fill-rule="evenodd" clip-rule="evenodd" d="M62 112.12C89.6804 112.12 112.12 89.6804 112.12 62C112.12 34.3196 89.6804 11.8802 62 11.8802C34.3196 11.8802 11.8802 34.3196 11.8802 62C11.8802 89.6804 34.3196 112.12 62 112.12ZM62 124C96.2417 124 124 96.2417 124 62C124 27.7583 96.2417 0 62 0C27.7583 0 0 27.7583 0 62C0 96.2417 27.7583 124 62 124Z" fill="white"/>
</g>
<path d="M38.8969 69.2916H36.5176C35.2555 69.2916 34.045 68.7903 33.1526 67.8978C32.2602 67.0054 31.7588 65.795 31.7588 64.5329V40.739C31.7588 39.4769 32.2602 38.2665 33.1526 37.374C34.045 36.4816 35.2555 35.9802 36.5176 35.9802H74.5877C75.8498 35.9802 77.0603 36.4816 77.9527 37.374C78.8451 38.2665 79.3465 39.4769 79.3465 40.739V64.5329C79.3465 65.795 78.8451 67.0054 77.9527 67.8978C77.0603 68.7903 75.8498 69.2916 74.5877 69.2916H72.2084" stroke="white" stroke-width="5.16667" stroke-linecap="round" stroke-linejoin="round"/>
<path d="M55.5527 64.5327L67.4496 78.809H43.6558L55.5527 64.5327Z" stroke="white" stroke-width="5.16667" stroke-linecap="round" stroke-linejoin="round"/>
<g clip-path="url(#clip1_1409_662)">
<path d="M93.3122 57.3948H62.9246C60.8879 57.3948 59.2368 59.0459 59.2368 61.0826V91.4701C59.2368 93.5068 60.8879 95.1579 62.9246 95.1579H93.3122C95.3489 95.1579 97 93.5068 97 91.4701V61.0826C97 59.0459 95.3489 57.3948 93.3122 57.3948Z" fill="#3178C6"/>
<path d="M93.3122 57.3948H62.9246C60.8879 57.3948 59.2368 59.0459 59.2368 61.0826V91.4701C59.2368 93.5068 60.8879 95.1579 62.9246 95.1579H93.3122C95.3489 95.1579 97 93.5068 97 91.4701V61.0826C97 59.0459 95.3489 57.3948 93.3122 57.3948Z" fill="#3178C6"/>
<path fill-rule="evenodd" clip-rule="evenodd" d="M82.613 87.4448V91.1371C83.2133 91.4448 83.9232 91.6755 84.7428 91.8294C85.5623 91.9832 86.4261 92.0602 87.3342 92.0602C88.2192 92.0602 89.0598 91.9756 89.8563 91.8063C90.6528 91.6371 91.3512 91.3582 91.9515 90.9698C92.5517 90.5814 93.0269 90.0736 93.377 89.4467C93.7271 88.8198 93.9022 88.0448 93.9022 87.1217C93.9022 86.4525 93.8022 85.866 93.6021 85.3621C93.402 84.8583 93.1135 84.4102 92.7364 84.0179C92.3593 83.6256 91.9072 83.2737 91.3801 82.9621C90.8529 82.6506 90.2585 82.3564 89.5966 82.0795C89.1118 81.8794 88.6771 81.6852 88.2923 81.4968C87.9075 81.3083 87.5804 81.116 87.3111 80.9199C87.0417 80.7237 86.834 80.516 86.6878 80.2968C86.5416 80.0775 86.4684 79.8295 86.4684 79.5525C86.4684 79.2987 86.5338 79.0699 86.6647 78.866C86.7955 78.6621 86.9802 78.4872 87.2187 78.341C87.4573 78.1949 87.7497 78.0814 88.096 78.0006C88.4424 77.9198 88.8271 77.8795 89.2504 77.8795C89.5581 77.8795 89.8833 77.9026 90.2257 77.9487C90.5682 77.9949 90.9125 78.066 91.2589 78.1621C91.6052 78.2583 91.9418 78.3795 92.2689 78.5256C92.5959 78.6718 92.898 78.841 93.175 79.0333V75.5833C92.6133 75.368 91.9995 75.2084 91.3339 75.1045C90.6682 75.0007 89.9044 74.9487 89.0426 74.9487C88.1653 74.9487 87.3342 75.043 86.5493 75.2314C85.7643 75.4199 85.0737 75.7141 84.4772 76.1141C83.8808 76.5141 83.4095 77.0237 83.0632 77.643C82.717 78.2622 82.5438 79.0025 82.5438 79.8641C82.5438 80.9641 82.8612 81.9025 83.4961 82.6795C84.1309 83.4564 85.0948 84.114 86.3877 84.6525C86.8955 84.8602 87.3688 85.064 87.8075 85.264C88.2461 85.4641 88.6251 85.6718 88.9444 85.8871C89.2638 86.1025 89.5158 86.3371 89.7006 86.591C89.8853 86.8448 89.9776 87.1332 89.9776 87.4564C89.9776 87.6948 89.9198 87.9159 89.8044 88.1198C89.689 88.3237 89.5139 88.5005 89.2792 88.6506C89.0445 88.8006 88.7521 88.9179 88.4019 89.0025C88.0517 89.0871 87.642 89.1294 87.1726 89.1294C86.3722 89.1294 85.5797 88.989 84.7947 88.7082C84.0098 88.4275 83.2825 88.0064 82.613 87.4448ZM76.4058 78.3476H81.1424V75.3175H67.9401V78.3476H72.6535V91.8389H76.4058V78.3476Z" fill="white"/>
</g>
</g>
<defs>
<radialGradient id="paint0_radial_1409_662" cx="0" cy="0" r="1" gradientUnits="userSpaceOnUse" gradientTransform="translate(20.8734 74.6068) rotate(90) scale(75.2267)">
<stop stop-color="#009FE3"/>
<stop offset="1" stop-color="#00D6E3" stop-opacity="0"/>
</radialGradient>
<radialGradient id="paint1_radial_1409_662" cx="0" cy="0" r="1" gradientUnits="userSpaceOnUse" gradientTransform="translate(103.127 63.7566) rotate(90) scale(75.1233 75.2267)">
<stop stop-color="#005BE3"/>
<stop offset="0.9999" stop-color="#005BE3" stop-opacity="0"/>
<stop offset="1" stop-color="#005BE3" stop-opacity="0"/>
</radialGradient>
<clipPath id="clip0_1409_662">
<rect width="124" height="124" rx="62" fill="white"/>
</clipPath>
<clipPath id="clip1_1409_662">
<rect width="37.7632" height="37.7632" fill="white" transform="translate(59.2368 57.3948)"/>
</clipPath>
</defs>
</svg>