<svg width="394" height="394" viewBox="0 0 394 394" fill="none" xmlns="http://www.w3.org/2000/svg">
<path d="M196.96 393.979C193.745 393.979 190.529 393.014 187.796 391.165C69.3789 311.497 0.965642 192.437 0.000943512 64.4539C-0.0794481 56.9775 4.98522 50.3854 12.2205 48.456L192.78 0.542643C195.513 -0.180881 198.407 -0.180881 201.221 0.542643L381.78 48.456C389.016 50.3854 394 56.9775 394 64.4539C393.116 192.357 324.622 311.497 206.205 391.165C203.392 393.014 200.176 393.979 196.96 393.979ZM33.2027 76.9146C38.1869 185.765 97.1944 286.978 196.96 357.642C296.726 286.978 355.734 185.765 360.718 76.9146L196.96 33.4228L33.2027 76.9146Z" fill="white"/>
</svg>
