<svg width="394" height="394" viewBox="0 0 394 394" fill="none" xmlns="http://www.w3.org/2000/svg">
<rect width="394" height="394" fill="white" fill-opacity="0.05"/>
<path d="M321.548 134.396C318.544 123.171 309.722 114.35 298.498 111.345C278.174 105.894 196.639 105.894 196.639 105.894C196.639 105.894 115.105 105.894 94.7807 111.345C83.5562 114.35 74.7352 123.171 71.7306 134.396C66.2792 154.72 66.2792 197.151 66.2792 197.151C66.2792 197.151 66.2792 239.581 71.7306 259.906C74.7352 271.13 83.5562 279.951 94.7807 282.955C115.105 288.407 196.639 288.407 196.639 288.407C196.639 288.407 278.174 288.407 298.498 282.955C309.722 279.951 318.544 271.13 321.548 259.906C327 239.581 327 197.151 327 197.151C327 197.151 326.978 154.72 321.548 134.396Z" fill="#FF0000"/>
<path d="M170.543 236.257L238.277 197.154L170.543 158.05V236.257Z" fill="white"/>
</svg>